<svg width="138" height="139" viewBox="0 0 138 139" fill="none" xmlns="http://www.w3.org/2000/svg">
<path d="M86.8259 0.367584C79.6803 1.33831 73.6132 3.92691 67.8158 8.45696C54.9537 18.5148 49.7496 35.7182 54.8728 51.3037C57.003 57.8831 61.2095 64.2467 66.3328 68.6419C71.4561 73.0641 77.6849 76.165 83.9676 77.4593C90.0077 78.7267 101.629 78.7267 107.022 77.4593L108.748 77.0549L114.195 82.4748C119.426 87.652 119.696 87.8677 120.693 87.8677C121.799 87.8677 122.689 87.3014 123.201 86.3307C123.39 85.9532 123.498 83.1219 123.498 77.756V69.7744L126.14 67.1589C129.969 63.3838 132.854 59.2313 134.769 54.8361C141.834 38.4686 137.034 19.3507 123.093 8.45696C117.215 3.84602 111.202 1.33831 103.841 0.340622C100.254 -0.117775 90.3582 -0.117775 86.8259 0.367584ZM105.324 5.97622C115.813 8.21428 124.388 14.7936 129.187 24.2582C130.239 26.3884 131.695 30.8106 132.153 33.3992C132.612 35.88 132.612 42.5941 132.153 44.994C130.643 53.1103 126.707 59.7436 119.992 65.541L118.24 67.051L118.159 72.9023L118.078 78.7806L114.33 75.0595L110.582 71.3653L109.422 71.5002C108.775 71.5541 107.049 71.9046 105.566 72.2552C103.139 72.8214 102.196 72.8754 95.859 72.8754C86.4214 72.9023 83.0508 72.2552 77.2265 69.3969C67.6541 64.7051 61.1017 56.1843 58.8906 45.5333C58.2973 42.702 58.2164 36.3383 58.7557 33.3992C60.6433 22.8561 67.4653 13.742 77.0917 8.86143C79.4376 7.70196 83.8058 6.2998 86.2866 5.92229C87.3921 5.76051 88.6055 5.57175 88.983 5.51782C90.6818 5.22121 103.49 5.59872 105.324 5.97622Z" fill="#16205F"/>
<path d="M93.1629 19.3238C90.844 20.0249 89.8732 20.5912 88.2554 22.236C86.26 24.2314 85.1275 26.6852 84.9926 29.3007C84.8848 31.1613 84.9117 31.3231 85.6398 32.0781C86.6105 33.1027 88.0666 33.1567 89.1991 32.1859C89.8193 31.6466 90.035 31.1882 90.2777 29.7322C90.6282 27.548 91.5181 26.1189 93.109 25.2021C95.5628 23.746 98.4749 24.0966 100.389 26.065C103.652 29.4356 102.385 34.3701 97.7739 36.0688C94.0797 37.444 93.5674 38.4148 93.5674 44.1313C93.5674 46.612 93.6752 48.4726 93.864 48.877C94.0527 49.2545 94.592 49.7399 95.1044 49.9826C95.9403 50.387 96.1829 50.387 97.0458 50.0635C98.6098 49.4702 98.9603 48.4456 98.9603 44.5088C98.9603 42.055 99.0412 41.2191 99.3108 41.2191C100.201 41.2191 103.005 39.5473 104.245 38.2799C109.854 32.5634 108.155 23.3416 100.902 19.9979C98.394 18.8385 95.6167 18.5958 93.1629 19.3238Z" fill="#16205F"/>
<path d="M95.5358 55.6988C94.592 55.8875 93.5674 57.2897 93.5674 58.3952C93.5674 60.4715 96.3447 61.7388 97.8548 60.3367C99.931 58.3952 98.3401 55.1865 95.5358 55.6988Z" fill="#16205F"/>
<path d="M14.9655 47.3131C13.9408 47.5288 11.9454 48.2838 10.5433 48.931C8.44004 49.9556 7.60414 50.5488 5.66269 52.4903C3.64034 54.4857 3.12802 55.2137 2.0764 57.3979C-0.0538039 61.82 0.000125253 61.1459 0.000125253 86.5196C0.000125253 111.893 -0.0538039 111.219 2.0764 115.641C3.12802 117.825 3.64034 118.554 5.66269 120.549C7.60414 122.49 8.44004 123.084 10.5433 124.081C14.4531 125.996 15.7744 126.158 26.0749 126.158H34.9193L40.0425 131.308C46.8107 138.13 47.4039 138.534 49.1566 137.725C50.5048 137.105 50.6936 136.323 50.6936 131.038V126.158H64.7151C80.786 126.158 81.2714 126.104 85.4779 124.081C87.635 123.057 88.417 122.49 90.3585 120.522C92.3269 118.581 92.8931 117.799 93.9178 115.641C95.9132 111.516 96.021 110.491 95.9401 98.1683L95.8592 87.5443L94.9425 86.7353C94.1874 86.0612 93.8908 85.9534 93.0549 86.0882C92.4347 86.1691 91.8146 86.5466 91.3562 87.0589L90.6012 87.8678V98.3301C90.6012 109.817 90.5472 110.41 88.9563 113.538C87.9317 115.587 85.5318 118.041 83.5904 119.012C80.2467 120.711 81.4332 120.603 63.4478 120.765L46.9185 120.899L46.1905 121.654C45.4624 122.356 45.4355 122.544 45.3006 125.51L45.1658 128.611L41.6604 125.079C39.7459 123.111 37.9123 121.358 37.6157 121.142C37.1843 120.846 35.2159 120.765 27.2344 120.765C19.3607 120.765 17.0687 120.684 15.8283 120.36C10.8399 119.066 7.09181 115.318 5.79751 110.329C5.20429 108.037 5.20429 65.0019 5.79751 62.7099C7.09181 57.7214 10.8399 53.9733 15.8283 52.679C17.0957 52.3555 19.927 52.2746 32.1419 52.2746H46.9185L47.7814 51.4926C48.5094 50.8455 48.6712 50.5219 48.6712 49.5781C48.6712 48.6344 48.5094 48.3108 47.7814 47.6636L46.9185 46.8817L31.8723 46.9086C19.7382 46.9086 16.5025 46.9895 14.9655 47.3131Z" fill="#16205F"/>
<path d="M16.3137 68.6962C14.5879 69.4242 14.1295 71.6623 15.4508 72.9566L16.1788 73.7116L36.8067 73.7925L57.4077 73.8464L58.2975 73.0645C59.0256 72.4173 59.1874 72.0937 59.1874 71.15C59.1874 70.2062 59.0256 69.8826 58.2975 69.2355L57.4347 68.4535L37.1303 68.4805C25.9939 68.4805 16.6103 68.5883 16.3137 68.6962Z" fill="#16205F"/>
<path d="M16.3137 83.7963C14.5879 84.5243 14.1295 86.7624 15.4508 88.0567L16.1788 88.8117L45.5702 88.8926L74.9347 88.9465L75.8245 88.1646C76.5526 87.5174 76.7143 87.1938 76.7143 86.2501C76.7143 85.3063 76.5526 84.9827 75.8245 84.3356L74.9616 83.5536L45.8938 83.5806C29.9308 83.5806 16.6103 83.6884 16.3137 83.7963Z" fill="#16205F"/>
<path d="M16.3137 98.8967C14.5879 99.6248 14.1295 101.863 15.4508 103.157L16.1788 103.912L40.1234 103.966C58.8368 104.02 64.1758 103.966 64.7151 103.696C65.0926 103.508 65.6049 102.914 65.8746 102.348C66.3599 101.377 66.3599 101.324 65.8746 100.353C65.6049 99.7866 65.0926 99.1933 64.7151 99.0046C64.2028 98.7349 58.729 98.654 40.447 98.681C27.477 98.681 16.6103 98.7889 16.3137 98.8967Z" fill="#16205F"/>
<path d="M73.2092 98.8961C71.4834 99.6242 71.025 101.862 72.3463 103.157C73.9642 104.801 76.7146 103.669 76.7146 101.35C76.7146 99.5702 74.7731 98.222 73.2092 98.8961Z" fill="#16205F"/>
</svg>
