<svg width="117" height="117" viewBox="0 0 117 117" fill="none" xmlns="http://www.w3.org/2000/svg">
<path d="M22.1565 0.357178C18.6747 0.990227 15.5825 2.62154 12.8799 5.32417C10.7129 7.51548 9.42249 9.56071 8.42422 12.4825L7.79117 14.3573L7.71813 53.9714L7.66943 93.6099H9.61727H11.5651V55.067C11.5651 28.7712 11.6382 16.0616 11.8329 15.0633C12.2469 12.6772 13.7321 9.95028 15.5825 8.09983C17.433 6.22504 20.2817 4.69112 22.6191 4.2772C24.5669 3.91198 43.3879 3.91198 45.3114 4.2772C50.9358 5.27547 55.6106 10.3642 56.268 16.1833L56.4384 17.6442H58.3862H60.3341L60.1393 15.8912C59.7497 11.8494 58.0697 8.39201 55.0262 5.34851C52.8106 3.13285 50.7897 1.84241 47.9653 0.917183L46.0175 0.259789L34.6957 0.21109C28.4626 0.186745 22.8382 0.259789 22.1565 0.357178Z" fill="#16205F"/>
<path d="M106.084 0.430374C105.232 0.917336 97.2701 12.9939 97.2701 13.8217C97.2701 14.2113 97.5136 14.747 97.8788 15.0878C98.4388 15.6722 98.5849 15.6965 101.774 15.6965H105.061L105.013 58.9629L104.94 102.254L104.38 103.763C103.187 106.953 100.654 109.947 98.0249 111.335C94.8596 112.991 95.1518 112.967 82.6613 112.967C72.2647 112.967 71.2421 112.918 70.0004 112.504C64.8386 110.751 61.1864 106.539 60.456 101.426L60.1638 99.4535H58.2403H56.2925L56.4873 101.207C56.8768 105.248 58.5568 108.706 61.6003 111.749C63.816 113.965 65.8369 115.231 68.6612 116.205L70.6091 116.862H82.6613H94.7136L96.6614 116.205C99.4858 115.231 101.507 113.965 103.722 111.749C105.938 109.534 107.204 107.513 108.178 104.688L108.835 102.74L108.908 59.2063L108.957 15.6965H112.268C115.434 15.6965 115.58 15.6722 116.14 15.0878C117.235 14.0165 117.041 13.5783 112.609 6.95563C108.738 1.13647 107.91 0.138199 107.009 0.138199C106.814 0.138199 106.401 0.259941 106.084 0.430374ZM109.152 8.75738L111.148 11.8009H107.009H102.87L104.867 8.75738C105.987 7.10172 106.936 5.73823 107.009 5.73823C107.082 5.73823 108.032 7.10172 109.152 8.75738Z" fill="#16205F"/>
<path d="M56.3657 23.488V25.4358H58.3136H60.2614V23.488V21.5401H58.3136H56.3657V23.488Z" fill="#16205F"/>
<path d="M51.1306 29.9404C50.5463 30.5004 50.5219 30.6709 50.5219 33.5439V36.5631L49.4019 37.0014L48.3062 37.4153L46.1636 35.3213C43.0471 32.2778 43.461 32.1318 37.6905 37.9266C31.8957 43.697 32.0418 43.2831 35.0853 46.3997L37.1792 48.5423L36.741 49.6379L36.2784 50.7579H33.2836C30.4348 50.7579 30.2644 50.7823 29.7044 51.3666L29.0957 51.951V58.5493V65.1476L29.7044 65.7319C30.2644 66.3163 30.4348 66.3406 33.2836 66.3406H36.2784L36.741 67.4606L37.1792 68.5563L35.0853 70.6989C32.0418 73.8155 31.8957 73.4016 37.6905 79.172C43.461 84.9668 43.0471 84.8207 46.1636 81.7772L48.3062 79.6833L49.4019 80.0972L50.5219 80.5355V83.5546C50.5219 86.4277 50.5463 86.5981 51.1306 87.1581L51.715 87.7668H58.3133H64.9116L65.4959 87.1581C66.0803 86.5981 66.1046 86.4277 66.1046 83.579V80.5842L67.2246 80.1216L68.3203 79.6833L70.4629 81.7772C73.5794 84.8207 73.1655 84.9668 78.936 79.172C84.7308 73.4016 84.5847 73.8155 81.5412 70.6989L79.4473 68.5563L79.8612 67.4606L80.2995 66.3406H83.3186C86.1917 66.3406 86.3621 66.3163 86.9221 65.7319L87.5308 65.1476V58.5493V51.951L86.9221 51.3666C86.3621 50.7823 86.1917 50.7579 83.3186 50.7579H80.2995L79.8612 49.6379L79.4473 48.5423L81.5412 46.3997C84.5847 43.2831 84.7308 43.697 78.936 37.9266C73.1655 32.1318 73.5794 32.2778 70.4629 35.3213L68.3203 37.4153L67.2246 36.977L66.1046 36.5144V33.5196C66.1046 30.6709 66.0803 30.5004 65.4959 29.9404L64.9116 29.3317H58.3133H51.715L51.1306 29.9404ZM62.2089 35.8813C62.2089 38.9492 62.4768 39.5092 64.2055 40.0205C64.7898 40.1909 65.9585 40.6535 66.8107 41.0431C67.6629 41.4327 68.6368 41.7492 68.9777 41.7492C69.3916 41.7492 70.1464 41.1892 71.5585 39.8014L73.5551 37.8779L76.282 40.6049L78.9847 43.3318L77.0612 45.304C74.8212 47.5684 74.7725 47.7631 75.8194 50.0519C76.209 50.904 76.6716 52.0727 76.8421 52.6571C77.3534 54.3858 77.9134 54.6536 80.9812 54.6536H83.6351V58.5493V62.445H80.9812C77.9134 62.445 77.3534 62.7128 76.8421 64.4415C76.6716 65.0259 76.209 66.1946 75.8194 67.0467C75.4299 67.8989 75.1133 68.8728 75.1133 69.2137C75.1133 69.6276 75.6733 70.3824 77.0612 71.7946L78.9847 73.7911L76.2577 76.5181L73.5307 79.2207L71.5585 77.2972C69.2942 75.0572 69.0994 75.0085 66.8107 76.0555C65.9585 76.445 64.7898 76.9077 64.2055 77.0781C62.4768 77.5894 62.2089 78.1494 62.2089 81.2172V83.8712H58.3133H54.4176V81.2172C54.4176 78.1494 54.1498 77.5894 52.421 77.0781C51.8367 76.9077 50.668 76.445 49.8158 76.0555C47.5271 75.0085 47.3323 75.0572 45.068 77.2972L43.0958 79.2207L40.3688 76.5181L37.6418 73.7911L39.5653 71.7946C40.9532 70.3824 41.5132 69.6276 41.5132 69.2137C41.5132 68.8728 41.1966 67.8989 40.8071 67.0467C40.4175 66.1946 39.9549 65.0259 39.7845 64.4415C39.2732 62.7128 38.7131 62.445 35.6453 62.445H32.9914V58.5493V54.6536H35.6453C38.7131 54.6536 39.2732 54.3858 39.7845 52.6571C39.9549 52.0727 40.4175 50.904 40.8071 50.0519C41.854 47.7631 41.8053 47.5684 39.5653 45.304L37.6418 43.3318L40.3445 40.6049L43.0714 37.8779L45.068 39.8014C46.4801 41.1892 47.2349 41.7492 47.6488 41.7492C47.9897 41.7492 48.9636 41.4327 49.8158 41.0431C50.668 40.6535 51.8367 40.1909 52.421 40.0205C54.1498 39.5092 54.4176 38.9492 54.4176 35.8813V33.2274H58.3133H62.2089V35.8813Z" fill="#16205F"/>
<path d="M54.929 43.3314C52.2507 43.9157 49.4263 45.4983 47.3568 47.5923C41.2698 53.6792 41.2211 63.3941 47.235 69.3837C50.2055 72.3298 53.4681 73.8393 57.4368 74.0585C64.5464 74.448 71.0717 69.9193 73.2386 63.0532C73.9934 60.6428 73.9934 56.4549 73.2386 54.0445C70.7795 46.3018 62.8177 41.627 54.929 43.3314ZM61.1134 47.227C65.3012 48.3227 68.5395 51.5853 69.6351 55.7975C71.2178 61.8602 67.3464 68.2393 61.1134 69.8706C55.0264 71.4532 48.6229 67.5819 46.9915 61.3488C44.8246 53.0218 52.7864 45.0601 61.1134 47.227Z" fill="#16205F"/>
<path d="M56.3657 93.61V95.5579H58.3136H60.2614V93.61V91.6622H58.3136H56.3657V93.61Z" fill="#16205F"/>
<path d="M7.32874 97.7492C5.79481 98.1387 3.6035 99.4535 2.53219 100.598C1.99653 101.182 1.19305 102.4 0.779135 103.3C0.0730439 104.786 0 105.151 0 107.269C0 109.461 0.0486959 109.68 0.900874 111.433C1.99653 113.648 3.40871 115.012 5.67307 116.083C7.1583 116.789 7.52352 116.862 9.61744 116.862C11.7114 116.862 12.0766 116.789 13.5618 116.083C15.8262 115.012 17.2384 113.648 18.334 111.433C19.1862 109.68 19.2349 109.461 19.2349 107.245C19.2349 105.029 19.1862 104.81 18.334 103.057C16.6784 99.7457 13.7566 97.7735 10.1531 97.6031C9.13048 97.5544 7.86439 97.6274 7.32874 97.7492ZM11.4192 101.694C13.5131 102.327 15.461 105.005 15.461 107.245C15.461 110.264 12.6366 113.088 9.61744 113.088C8.08352 113.088 6.84178 112.528 5.60003 111.262C3.11654 108.803 3.11654 105.687 5.60003 103.227C7.30439 101.499 9.13048 101.036 11.4192 101.694Z" fill="#16205F"/>
</svg>
