<svg width="125" height="124" viewBox="0 0 125 124" fill="none" xmlns="http://www.w3.org/2000/svg">
<path d="M61.2594 0.446214C59.1355 1.61805 60.0388 4.98706 62.4557 4.98706C63.7007 4.98706 64.897 3.79082 64.897 2.57016C64.897 0.739172 62.8707 -0.457073 61.2594 0.446214Z" fill="#16205F"/>
<path d="M31.5242 7.30646C30.5233 7.72149 29.8397 9.0398 30.0839 10.0163C30.2792 10.7975 46.9289 27.6914 48.1008 28.3262C49.0773 28.8389 49.8829 28.7412 50.713 28.0332C51.7139 27.2032 51.9336 26.0069 51.2745 24.9572C50.4932 23.7121 34.112 7.47735 33.3308 7.20881C32.4763 6.89144 32.4763 6.89144 31.5242 7.30646Z" fill="#16205F"/>
<path d="M91.3853 7.33042C90.5553 7.74544 75.0041 23.1257 73.9055 24.6149C72.9534 25.9088 72.9778 26.7877 74.0276 27.8375C74.9309 28.7407 75.7365 28.8872 76.8107 28.3257C77.9825 27.691 94.6323 10.7971 94.8276 10.0159C95.0717 9.01493 94.3881 7.72103 93.3384 7.28159C92.313 6.86657 92.2886 6.86657 91.3853 7.33042Z" fill="#16205F"/>
<path d="M61.5766 10.0891C61.2836 10.2111 60.8198 10.6262 60.5268 10.9924C60.0386 11.6271 60.0142 11.8468 60.0142 19.1952C60.0142 27.3736 60.063 27.7886 61.3569 28.3745C62.1625 28.7407 62.7484 28.7407 63.5541 28.3745C64.848 27.7886 64.8968 27.3736 64.8968 19.1708V11.5783L64.2376 10.8459C63.5052 10.0647 62.4067 9.74729 61.5766 10.0891Z" fill="#16205F"/>
<path d="M24.4687 24.542C23.6143 24.9814 0.348544 53.9599 0.104412 54.912C-0.0420669 55.4735 -0.0420669 55.9617 0.153238 56.3523C0.299717 56.6697 3.2293 59.3552 6.67155 62.3092L12.9213 67.68L18.2922 74.9063C21.2218 78.8857 23.6387 82.2059 23.6387 82.3035C23.6387 82.3768 23.3213 82.9627 22.9063 83.573C20.7579 86.942 21.1485 91.2143 23.8828 94.1927C25.0058 95.4134 27.4716 96.7805 28.5701 96.7805C29.2537 96.7805 29.2537 96.7805 29.2537 98.3674C29.2537 99.3683 29.449 100.443 29.7664 101.346C30.7917 104.129 34.3072 106.79 36.9194 106.79C37.8227 106.79 38.0424 107.083 38.0424 108.279C38.0424 108.67 38.2378 109.451 38.4575 110.012C39.8002 113.455 42.7298 115.554 46.4406 115.701L47.9298 115.75L48.1007 116.653C48.6133 119.07 50.4932 121.413 52.8856 122.585C54.1063 123.196 54.5457 123.269 56.5964 123.269C58.6716 123.269 59.0622 123.196 60.234 122.585C60.942 122.195 62.065 121.389 62.6997 120.803C63.3345 120.217 63.9204 119.729 63.9936 119.729C64.0913 119.729 64.6528 120.095 65.2631 120.559C68.7298 123.22 73.4903 122.976 76.5908 119.973C77.8115 118.777 78.7636 116.921 79.1054 115.09L79.3495 113.699L80.5946 113.552C84.1833 113.113 87.2105 110.11 87.8941 106.302L88.1382 104.91L89.3833 104.764C92.9965 104.324 95.9993 101.346 96.6828 97.4885C96.9026 96.1458 96.9758 96.0481 97.5861 96.0481C99.7589 96.0481 102.688 94.3392 104.031 92.3129C105.765 89.7007 106.057 86.6491 104.812 83.9148L104.227 82.6453L108.181 74.3693L112.161 66.0932L118.337 60.7711C121.731 57.8415 124.611 55.1805 124.734 54.8631C124.856 54.5458 124.953 54.0087 124.953 53.6913C124.953 53.0077 103.836 25.3721 102.786 24.6885C102.371 24.4199 101.858 24.2979 101.346 24.3711C100.906 24.4199 97.6105 26.373 93.6556 28.8876L86.6979 33.3063H77.7382H68.7542L61.9918 35.2594C58.2565 36.3336 54.9852 37.2124 54.741 37.2124C54.4969 37.188 51.2011 36.358 47.4415 35.3082L40.6058 33.4284L33.5748 28.9608C26.5683 24.4932 25.5429 24.0049 24.4687 24.542ZM30.7673 32.9645C33.2331 34.527 35.3814 35.9429 35.5523 36.1138C35.8209 36.358 34.0143 38.7016 25.2744 49.3214C19.464 56.4256 14.557 62.2359 14.4105 62.2359C13.8978 62.2359 5.8415 55.1805 6.01239 54.8876C6.45183 54.1796 25.9824 30.1326 26.1288 30.1326C26.2265 30.1326 28.326 31.4021 30.7673 32.9645ZM110.061 41.7533C114.968 48.1495 118.972 53.4472 118.972 53.5448C118.972 53.7401 110.769 60.8688 110.55 60.8932C110.476 60.8932 106.082 55.4002 100.809 48.6622C92.7523 38.4087 91.2631 36.3824 91.5317 36.1138C91.9467 35.7232 100.833 30.1326 101.028 30.1326C101.102 30.157 105.154 35.3814 110.061 41.7533ZM96.7805 51.5185C102.542 58.8425 107.229 64.8969 107.205 64.9946C107.132 65.2876 100.76 78.5927 100.638 78.6904C100.565 78.7636 94.2415 72.5383 86.5514 64.8725C72.88 51.2256 72.5626 50.9326 71.4885 50.7861C70.8781 50.7129 67.5335 50.4688 64.0425 50.2491C58.3786 49.8584 57.6218 49.8584 56.9871 50.2002C56.4744 50.4688 55.4002 52.1289 52.6415 57.0115C50.6396 60.5514 48.8087 63.6519 48.5889 63.9204C47.0021 65.6782 43.926 65.3364 42.6809 63.2857C42.095 62.3092 42.0462 60.6735 42.5833 59.5993C42.803 59.1599 44.9514 55.327 47.3683 51.0547L51.7626 43.3157L53.0321 42.9495C53.7157 42.7542 57.6218 41.6068 61.7232 40.4106L69.1692 38.2378L77.7382 38.2134L86.3073 38.189L96.7805 51.5185ZM43.2913 39.2631C44.5119 39.5805 45.9523 39.9711 46.5382 40.142C47.0997 40.2885 47.5636 40.4838 47.5636 40.6059C47.5636 40.7035 45.5861 44.2922 43.1448 48.589C37.6763 58.2077 37.6274 58.3542 37.3589 60.0143C36.773 63.7251 38.604 67.3383 41.9974 69.1204C43.1692 69.7308 43.511 69.804 45.8547 69.804C48.1983 69.804 48.5401 69.7308 49.7119 69.1204C51.8359 67.9974 52.6659 66.9232 56.2058 60.6735L59.5748 54.7655L60.4537 54.8876C60.9664 54.9608 63.4077 55.1561 65.9223 55.3026L70.4631 55.5955L85.3551 70.512C98.6115 83.7683 100.296 85.5505 100.54 86.4538C101.346 89.5542 98.172 92.1909 95.3401 90.7749C94.9007 90.5552 90.7749 86.5514 86.1364 81.8641L77.7138 73.3195L76.6641 73.3439C75.004 73.3439 73.881 74.8087 74.2716 76.42C74.3936 76.835 77.6894 80.3261 82.9382 85.6481C92.1664 94.9251 92.2396 95.0228 91.7514 97.0979C91.2387 99.3683 88.6265 100.589 86.5514 99.5636C86.1119 99.3683 83.1824 96.5608 80.0331 93.3383L74.296 87.4791L73.173 87.5035C71.6105 87.5035 70.7561 88.3336 70.7561 89.896V90.9946L76.7129 97.0002C81.6688 101.981 82.7185 103.177 82.9382 103.982C83.6706 106.79 81.327 109.182 78.3974 108.621C77.6406 108.474 76.8349 107.815 73.8077 104.812C70.3899 101.419 70.0969 101.175 69.218 101.175C67.4359 101.175 66.2641 102.713 66.85 104.251C66.9964 104.642 68.6321 106.497 70.5119 108.377C74.2716 112.185 74.6378 112.82 74.1495 114.773C73.4659 117.434 70.219 118.362 67.9974 116.531L67.0941 115.798L67.5335 115.017C67.8509 114.431 67.9486 113.65 67.9486 111.795C67.9486 109.597 67.8753 109.231 67.265 108.011C66.1176 105.765 64.2622 104.202 61.9429 103.519L60.942 103.226L60.8932 101.15C60.8443 98.758 60.1608 97.0002 58.6716 95.3402C57.5486 94.1195 55.2049 92.9232 53.4716 92.7035C52.2997 92.5815 52.2021 92.5082 52.2021 91.8979C52.2021 90.9458 51.5185 88.773 50.8838 87.7721C50.1025 86.5514 48.4425 85.111 47.0997 84.5007C46.2453 84.1101 45.4885 83.988 43.8284 83.9636H41.7044L41.4359 82.9871C40.8011 80.5702 38.604 78.1777 36.187 77.2744C34.9908 76.8106 34.4049 76.7373 32.6716 76.8106C30.6453 76.9082 29.4002 77.3477 27.7401 78.5195C27.3739 78.788 27.2518 78.7392 26.9589 78.3486C26.7636 78.0801 24.664 75.2725 22.3204 72.1232C19.9523 68.9739 18.0481 66.2397 18.0969 66.0688C18.1946 65.4829 40.5326 38.4575 40.8256 38.5552C40.972 38.604 42.095 38.9214 43.2913 39.2631ZM35.1373 82.2059C36.6509 83.2068 37.2124 85.1355 36.48 86.8444C35.9429 88.1139 32.2321 91.5561 31.0603 91.8735C29.1805 92.3862 27.3983 91.434 26.6903 89.5786C25.9824 87.7721 26.2997 86.9909 28.5946 84.6228C29.6932 83.4754 30.9382 82.3524 31.3288 82.1082C32.3786 81.4491 34.0875 81.4979 35.1373 82.2059ZM45.2687 89.1148C46.7824 89.8472 47.5392 91.4585 47.1974 93.2894C47.0509 94.0463 46.4406 94.8275 43.5842 97.7082C41.68 99.6369 39.8246 101.37 39.4584 101.566C38.5063 102.054 36.8462 102.005 35.8941 101.419C34.3072 100.443 33.6481 98.1721 34.4781 96.5852C34.9664 95.6575 41.4603 89.2857 42.1927 88.9927C43.1204 88.6265 44.341 88.6754 45.2687 89.1148ZM53.7401 97.8547C55.4734 98.5627 56.4256 100.589 55.9129 102.347C55.4979 103.665 48.7842 110.305 47.5148 110.647C45.4152 111.209 43.218 109.768 42.9983 107.693C42.9251 107.083 42.9495 106.277 43.0471 105.887C43.2425 105.057 49.7852 98.343 50.8594 97.8547C51.8115 97.4397 52.7636 97.4397 53.7401 97.8547ZM61.3326 108.572C63.0171 109.524 63.6518 111.697 62.7974 113.504C62.5777 113.967 61.5035 115.212 60.3805 116.287C58.8913 117.727 58.1101 118.289 57.4753 118.386C56.1082 118.655 54.8875 118.313 54.0087 117.434C53.2763 116.702 52.6171 115.139 52.8124 114.529C52.8612 114.358 52.9589 113.919 53.0565 113.528C53.1542 113.089 53.9598 112.014 55.0828 110.867C57.8171 108.035 59.404 107.449 61.3326 108.572Z" fill="#16205F"/>
</svg>
