<svg width="109" height="132" viewBox="0 0 109 132" fill="none" xmlns="http://www.w3.org/2000/svg">
<path d="M48.5859 0.419037C45.5656 0.751785 41.0094 1.82684 37.9123 2.92747C34.8151 4.02813 30.9244 5.87106 30.2333 6.56216C29.5166 7.27886 29.619 8.66106 30.4381 9.30098C30.8221 9.60813 31.2572 9.8385 31.4364 9.8385C31.6155 9.8385 33.0489 9.22419 34.6615 8.4563C51.6575 0.419037 71.1875 3.43941 84.6 16.212C99.5227 30.3924 102.901 52.738 92.842 70.5531C83.9089 86.3716 66.2474 95.2536 48.3812 92.8987C38.7825 91.6445 30.4893 87.6258 23.2967 80.766C16.3601 74.111 11.932 65.7921 10.1658 56.0399C9.5259 52.482 9.5259 44.7519 10.1658 41.194C11.9064 31.5954 16.2321 23.379 23.1176 16.6215C24.551 15.2137 25.8308 13.8571 25.9588 13.6012C26.5219 12.5773 25.498 11.1183 24.2438 11.1183C23.6039 11.1183 23.0408 11.4511 21.6586 12.6285C17.6399 16.1352 13.7237 21.3569 10.9593 26.8601C5.89122 37.0218 4.50901 47.3884 6.76149 58.5228C8.29727 66.2017 12.5207 74.6997 17.6143 80.4077L19.0221 81.9946L16.2065 86.9091C14.6708 89.6224 13.3909 92.0284 13.3909 92.31C13.3909 93.0523 14.5428 94.0505 15.3875 94.0505C16.3857 94.0505 16.7441 93.6922 17.9983 91.4909C18.6126 90.4414 19.7132 88.4961 20.4811 87.1907L21.8633 84.8358L23.7063 86.3204C28.0833 89.9039 33.3817 92.7963 38.7825 94.5881C40.6511 95.2024 42.238 95.7399 42.2892 95.7655C42.4172 95.8423 26.0867 124.229 25.9076 124.254C25.8308 124.254 24.8069 121.234 23.6551 117.522C22.4777 113.837 21.3514 110.611 21.1466 110.355C20.5323 109.69 19.5853 109.792 12.5719 111.328C9.03957 112.096 6.09599 112.685 6.0192 112.633C5.968 112.557 7.47819 109.767 9.39792 106.414C13.1094 99.9377 13.2374 99.5793 12.0599 98.5811C11.4456 98.0692 10.345 98.018 9.75626 98.4787C9.32113 98.8115 0.746348 113.555 0.208825 114.912C0.0296504 115.321 -0.0471387 115.859 0.0296504 116.063C0.234421 116.703 1.15589 117.599 1.61662 117.599C1.84699 117.599 5.71204 116.78 10.1914 115.807C14.6708 114.809 18.3822 114.067 18.459 114.118C18.5102 114.195 19.7132 117.855 21.0954 122.258C22.8872 127.915 23.8087 130.397 24.167 130.705C24.9605 131.37 25.882 131.268 26.6499 130.449C27.0338 130.065 31.6155 122.283 36.8116 113.171L46.2823 96.6102L48.074 96.8149C50.4289 97.0453 57.8262 97.0453 60.1043 96.7893L61.896 96.5846L67.6552 106.644C70.8292 112.173 73.6192 116.882 73.8751 117.138C74.5662 117.855 75.9484 117.753 76.5883 116.934C76.8955 116.55 77.1259 116.063 77.1259 115.833C77.1259 115.603 74.5918 110.995 71.4947 105.594C68.3975 100.194 65.8891 95.7399 65.9147 95.7143C65.9659 95.6887 66.7337 95.4583 67.6552 95.2024C73.4912 93.513 80.095 90.0063 84.8304 86.0901C85.7007 85.3478 86.4685 84.8358 86.5197 84.9894C86.5709 85.1174 90.1544 91.3885 94.5058 98.9138C98.8572 106.439 102.389 112.633 102.364 112.659C102.364 112.659 99.2411 112.019 95.4529 111.174C91.6646 110.355 88.3627 109.664 88.1323 109.664C87.0061 109.664 86.8525 110.048 83.4738 120.722L82.3731 124.254L81.4772 123.026C80.479 121.695 79.5575 121.387 78.5593 122.053C77.3818 122.821 77.4842 123.563 79.1992 126.66C81.5028 130.781 81.6052 130.909 82.6803 130.909C84.3696 130.909 84.0881 131.549 88.4907 117.574L89.6681 113.862L97.5518 115.603C101.878 116.55 105.794 117.369 106.28 117.394C107.33 117.446 108.097 116.652 108.097 115.526C108.097 115.04 105.103 109.613 98.8316 98.7347C93.7635 89.9039 89.5401 82.4554 89.4633 82.1994C89.3865 81.9435 89.7193 81.3547 90.3336 80.6636C93.0212 77.7456 95.5552 73.9318 97.6285 69.606C105.819 52.6868 103.413 32.5169 91.4598 17.9014C89.3097 15.2649 84.728 10.9903 81.9636 9.01942C79.1224 6.97171 74.1567 4.38647 70.6756 3.08105C63.9949 0.598221 55.7273 -0.40004 48.5859 0.419037Z" fill="#16205F"/>
<path d="M48.4579 13.8062C33.6376 16.3146 21.9145 27.9354 19.4316 42.6533C18.8685 45.8784 18.8685 51.3561 19.4316 54.5812C21.6073 67.4306 30.694 77.9763 43.1594 82.1485C46.6661 83.3259 49.9169 83.8123 54.2171 83.8123C62.7662 83.8123 70.2404 81.099 76.793 75.5702C80.7861 72.2171 85.5726 65.7924 85.5726 63.7703C85.5726 62.9256 84.5487 62.0553 83.5761 62.0553C82.6802 62.0553 82.8594 61.8506 79.9158 66.3555C76.3067 71.8843 70.2916 76.3893 63.6621 78.565C57.8517 80.4591 50.352 80.4591 44.516 78.565C39.8831 77.0548 35.6853 74.4696 32.1274 70.9629C25.4212 64.3334 22.2728 55.861 22.8871 46.1344C23.6038 35.4095 30.3357 25.4269 40.2159 20.4868C47.4596 16.8521 56.2392 16.2378 63.9181 18.8231C74.7965 22.4578 82.8082 31.7236 84.9327 43.114C85.3934 45.5969 85.4702 51.1257 85.0607 53.4806C84.7023 55.6307 84.7279 55.989 85.3166 56.6289C86.0589 57.4224 87.4155 57.3968 88.081 56.5521C88.7721 55.6818 89.1817 52.6615 89.1817 48.5405C89.1817 44.829 88.9257 42.8069 88.0042 39.4026C84.4975 26.1436 73.2607 16.0075 59.5923 13.8062C56.8279 13.3454 51.1199 13.3454 48.4579 13.8062Z" fill="#16205F"/>
<path d="M53.1167 26.1434C52.9375 26.2201 51.4273 28.9846 49.7636 32.3377L46.7176 38.3784L40.3697 39.2743C34.4058 40.119 33.945 40.2213 33.3051 40.8613C32.0253 42.0899 32.1789 42.3202 37.4261 47.5419L42.2894 52.354L41.1376 58.9323C39.9858 65.4338 39.9858 65.4849 40.4721 66.1249C41.4192 67.4047 42.0847 67.2255 48.2022 64.0004C51.2994 62.3622 53.9358 61.0312 54.115 61.0312C54.2685 61.0312 56.905 62.3622 59.9765 64.0004C66.0685 67.2255 66.7596 67.4047 67.7066 66.1249C68.193 65.4849 68.193 65.4338 67.0411 58.9323L65.8893 52.3796L70.7526 47.5419C74.0801 44.2144 75.5903 42.5506 75.5903 42.1667C75.5903 41.8595 75.3343 41.2964 75.0016 40.9125C74.4385 40.2725 74.1057 40.1958 67.937 39.2999L61.4355 38.3784L58.5175 32.4912C56.905 29.2405 55.3948 26.4505 55.1644 26.2713C54.7549 25.9642 53.731 25.8874 53.1167 26.1434ZM56.393 36.8938C57.5961 39.3767 58.7991 41.5268 59.0806 41.7059C59.4902 41.9619 68.1674 43.3697 69.3192 43.3697C69.4728 43.3697 67.8858 45.0079 65.7869 47.03C62.3314 50.3831 62.0242 50.7414 62.0242 51.5605C62.0242 52.0725 62.3826 54.4785 62.7921 56.9102C63.2273 59.3418 63.5344 61.3895 63.5088 61.4151C63.4576 61.4663 61.4867 60.4425 59.0806 59.1626C56.7002 57.8828 54.4477 56.859 54.0894 56.859C53.731 56.859 51.5041 57.9084 49.0981 59.1882C46.7176 60.4681 44.7211 61.4663 44.6699 61.4151C44.6443 61.3895 44.9515 59.3418 45.3866 56.9102C45.7961 54.4785 46.1545 52.0725 46.1545 51.5605C46.1545 50.7414 45.8729 50.3831 42.3918 47.03C40.2929 45.0079 38.7315 43.3697 38.8595 43.3697C40.037 43.3697 48.6885 41.9619 49.0981 41.7059C49.3796 41.5268 50.6082 39.3511 51.7857 36.8938C52.9887 34.411 54.0126 32.3889 54.0894 32.3889C54.1661 32.3889 55.19 34.411 56.393 36.8938Z" fill="#16205F"/>
</svg>
