<svg width="30" height="30" viewBox="0 0 30 30" fill="none" xmlns="http://www.w3.org/2000/svg">
<path d="M15 2.5C8.11125 2.5 2.5 8.11125 2.5 15C2.5 21.8888 8.11125 27.5 15 27.5C21.8888 27.5 27.5 21.8888 27.5 15C27.5 8.11125 21.8888 2.5 15 2.5ZM15 5C20.5377 5 25 9.46235 25 15C25 20.0181 21.3317 24.1413 16.5234 24.873V17.981H19.4336L19.8901 15.0244H16.5234V13.4082C16.5234 12.1795 16.9237 11.0889 18.0737 11.0889H19.9194V8.5083C19.5944 8.46455 18.9086 8.36914 17.6123 8.36914C14.9048 8.36914 13.3179 9.79914 13.3179 13.0566V15.0244H10.5347V17.981H13.3179V24.8486C8.58786 24.0511 5 19.9628 5 15C5 9.46235 9.46235 5 15 5Z" fill="#16205F"/>
</svg>
