<svg width="30" height="30" viewBox="0 0 30 30" fill="none" xmlns="http://www.w3.org/2000/svg">
<path d="M6.25 3.75C4.86875 3.75 3.75 4.86875 3.75 6.25V23.75C3.75 25.1313 4.86875 26.25 6.25 26.25H23.75C25.1313 26.25 26.25 25.1313 26.25 23.75V6.25C26.25 4.86875 25.1313 3.75 23.75 3.75H6.25ZM6.25 6.25H23.75V23.75H6.25V6.25ZM9.72412 7.89551C8.65287 7.89551 8.01025 8.53947 8.01025 9.39697C8.01025 10.2545 8.65295 10.896 9.6167 10.896C10.6879 10.896 11.3306 10.2545 11.3306 9.39697C11.3306 8.53947 10.6879 7.89551 9.72412 7.89551ZM8.0957 12.5V21.25H11.25V12.5H8.0957ZM13.8525 12.5V21.25H17.0068V16.4673C17.0068 15.0435 18.0226 14.8389 18.3276 14.8389C18.6326 14.8389 19.4482 15.1448 19.4482 16.4673V21.25H22.5V16.4673C22.5 13.721 21.2797 12.5 19.7534 12.5C18.2272 12.5 17.4131 13.0082 17.0068 13.7207V12.5H13.8525Z" fill="#16205F"/>
</svg>
