<svg width="30" height="30" viewBox="0 0 30 30" fill="none" xmlns="http://www.w3.org/2000/svg">
<path d="M6.25 3.75C4.87125 3.75 3.75 4.87125 3.75 6.25V23.75C3.75 25.1287 4.87125 26.25 6.25 26.25H23.75C25.1287 26.25 26.25 25.1287 26.25 23.75V6.25C26.25 4.87125 25.1287 3.75 23.75 3.75H6.25ZM6.25 6.25H23.75L23.7524 23.75H6.25V6.25ZM18.208 8.8916C16.493 8.8916 15.1001 10.2858 15.1001 11.9995C15.1001 12.3208 15.2075 12.5353 15.2075 12.749C12.6363 12.6428 10.3867 11.3574 8.88672 9.53613C8.56547 9.96488 8.45703 10.4989 8.45703 11.0352C8.45703 12.1064 8.99357 12.9658 9.85107 13.7158C9.31607 13.6083 8.88578 13.4999 8.45703 13.2861C8.45703 14.7861 9.52791 15.9654 10.9204 16.2866C10.5992 16.3941 10.3847 16.394 10.0635 16.394C9.95598 16.394 9.74012 16.2866 9.52637 16.2866C9.95512 17.4654 11.0269 18.4277 12.4194 18.4277C11.3482 19.1777 9.95451 19.7144 8.56201 19.7144H7.8125C9.205 20.5706 10.8131 21.1084 12.5269 21.1084C18.2056 21.1084 21.3135 16.393 21.3135 12.3218V11.8921C21.8497 11.4633 22.3837 10.9282 22.8149 10.2832C22.1724 10.6057 21.6362 10.7128 20.9937 10.8203C21.6362 10.3928 22.1715 9.85645 22.3853 9.10645C21.849 9.4277 21.2065 9.74846 20.4565 9.85596C19.9203 9.21346 19.0655 8.8916 18.208 8.8916Z" fill="#16205F"/>
</svg>
