<svg width="30" height="30" viewBox="0 0 30 30" fill="none" xmlns="http://www.w3.org/2000/svg">
<path d="M15 5C15 5 7.18193 4.99996 5.23193 5.52246C4.15568 5.80996 3.30996 6.65693 3.02246 7.73193C2.49996 9.68193 2.5 15 2.5 15C2.5 15 2.49996 20.3181 3.02246 22.2681C3.30996 23.3443 4.15693 24.19 5.23193 24.4775C7.18193 25 15 25 15 25C15 25 22.8181 25 24.7681 24.4775C25.8431 24.19 26.69 23.3431 26.9775 22.2681C27.5 20.3181 27.5 15 27.5 15C27.5 15 27.5 9.68193 26.9775 7.73193C26.69 6.65693 25.8431 5.80996 24.7681 5.52246C22.8181 4.99996 15 5 15 5ZM15 7.5C18.6025 7.5 23.1136 7.66701 24.1211 7.93701C24.3323 7.99326 24.5055 8.16641 24.563 8.37891C24.8642 9.50141 25 12.9275 25 15C25 17.0725 24.8642 20.4973 24.563 21.6211C24.5067 21.8323 24.3336 22.0055 24.1211 22.063C23.1148 22.333 18.6025 22.5 15 22.5C11.3988 22.5 6.88766 22.333 5.87891 22.063C5.66766 22.0067 5.49451 21.8336 5.43701 21.6211C5.13576 20.4986 5 17.0725 5 15C5 12.9275 5.13576 9.50146 5.43701 8.37646C5.49326 8.16646 5.66641 7.99326 5.87891 7.93701C6.88516 7.66701 11.3975 7.5 15 7.5ZM12.5 10.6689V19.3311L20 15L12.5 10.6689Z" fill="#16205F"/>
</svg>
